<svg xmlns="http://www.w3.org/2000/svg" width="21" height="21" fill="currentColor">
<symbol id="floppy" 
    stroke="currentColor"
    fill="currentColor"
  >
  <path d="M0 0h1.6154v1.6154H0z"/>
  <path d="M0 1.6152h1.6154v1.6154H0zM0 3.231h1.6154v1.6154H0z"/>
  <path d="M0 4.8462h1.6154v1.6154H0z"/>
  <path d="M0 6.4614h1.6154v1.6154H0zM0 8.0771h1.6154v1.6154H0z"/>
  <path d="M0 9.6924h1.6154v1.6154H0z"/>
  <path d="M0 11.3076h1.6154v1.6154H0z"/>
  <path d="M0 12.9229h1.6154v1.6154H0zM0 14.5386h1.6154v1.6154H0z"/>
  <path d="M0 16.1538h1.6154v1.6154H0z"/>
  <path d="M0 17.769h1.6154v1.6154H0zM0 19.3848h1.6154v1.6154H0zM17.7693 0v1.6154h-1.6154V0zM16.1538 0v1.6154h-1.6154V0z"/>
  <path d="M14.5385 0v1.6154h-1.6154V0zM12.9231 0v1.6154h-1.6154V0zM11.3077 0v1.6154H9.6923V0zM9.6923 0v1.6154H8.0769V0zM8.0769 0v1.6154H6.4615V0zM6.4615 0v1.6154H4.8461V0z"/>
  <path d="M4.8462 0v1.6154H3.2308V0zM3.2307 0v1.6154H1.6153V0zM19.3846 1.6152v1.6154h-1.6154V1.6152zM4.8461 3.231v1.6154H3.2307V3.231z"/>
  <path d="M4.8462 1.6152v1.6154H3.2308V1.6152zM4.8462 4.8462v1.6154H3.2308V4.8462zM16.1538 3.231v1.6154h-1.6154V3.231zM16.1538 1.6152v1.6154h-1.6154V1.6152z"/>
  <path d="M16.1538 4.8462v1.6154h-1.6154V4.8462zM12.923 3.231v1.6154h-1.6153V3.231zM12.9231 1.6152v1.6154h-1.6154V1.6152z"/>
  <path d="M12.923 4.8462v1.6154h-1.6153V4.8462zM16.1538 6.4614v1.6154h-1.6154V6.4614z"/>
  <path d="M14.5385 6.4614v1.6154h-1.6154V6.4614zM12.9231 6.4614v1.6154h-1.6154V6.4614zM11.3077 6.4614v1.6154H9.6923V6.4614zM9.6923 6.4615v1.6154H8.0769V6.4615z"/>
  <path d="M8.077 6.4614v1.6154H6.4614V6.4614z"/>
  <path d="M6.4616 6.4614v1.6154H4.8462V6.4614zM4.8462 6.4614v1.6154H3.2308V6.4614zM17.7693 11.3076v1.6154h-1.6154v-1.6154zM16.1538 11.3076v1.6154h-1.6154v-1.6154z"/>
  <path d="M14.5385 11.3076v1.6154h-1.6154v-1.6154zM12.9231 11.3076v1.6154h-1.6154v-1.6154zM11.3077 11.3076v1.6154H9.6923v-1.6154zM9.6923 11.3076v1.6154H8.0769v-1.6154zM8.0769 11.3076v1.6154H6.4615v-1.6154zM6.4615 11.3075v1.6155H4.8461v-1.6155z"/>
  <path d="M4.8462 11.3076v1.6154H3.2308v-1.6154zM17.7693 12.9229v1.6154h-1.6154v-1.6154zM4.8462 12.923v1.6153H3.2308V12.923zM17.7693 14.5386v1.6154h-1.6154v-1.6154zM4.8462 14.5386v1.6154H3.2308v-1.6154z"/>
  <path d="M17.7693 16.1538v1.6154h-1.6154v-1.6154zM4.8462 16.1538v1.6154H3.2308v-1.6154z"/>
  <path d="M4.8462 17.769v1.6154H3.2308V17.769zM17.7693 17.769v1.6154h-1.6154V17.769zM19.3846 19.3848v1.6154h-1.6154v-1.6154z"/>
  <path d="M17.7693 19.3848v1.6154h-1.6154v-1.6154zM16.1538 19.3848v1.6154h-1.6154v-1.6154z"/>
  <path d="M14.5385 19.3848v1.6154h-1.6154v-1.6154zM12.9231 19.3848v1.6154h-1.6154v-1.6154zM11.3077 19.3848v1.6154H9.6923v-1.6154zM9.6923 19.3848v1.6154H8.0769v-1.6154zM8.0769 19.3848v1.6154H6.4615v-1.6154zM6.4615 19.3847v1.6154H4.8461v-1.6154z"/>
  <path d="M4.8462 19.3848v1.6154H3.2308v-1.6154zM3.2307 19.3848v1.6154H1.6153v-1.6154zM21 21h-1.6154v-1.6154H21z"/>
  <path d="M21 19.3848h-1.6154v-1.6154H21zM21 17.769h-1.6154v-1.6154H21z"/>
  <path d="M21 16.1538h-1.6154v-1.6154H21z"/>
  <path d="M21 14.5386h-1.6154v-1.6154H21zM21 12.9229h-1.6154v-1.6154H21z"/>
  <path d="M21 11.3076h-1.6154V9.6922H21z"/>
  <path d="M21 9.6924h-1.6154V8.077H21z"/>
  <path d="M21 8.0772h-1.6154V6.4618H21zM21 6.4615h-1.6154V4.846H21z"/>
  <path d="M21 4.8462h-1.6154V3.2308H21z"/>
  </symbol>
</svg>